<?xml version="1.0" standalone="no"?>
<!DOCTYPE svg PUBLIC "-//W3C//DTD SVG 20010904//EN"
 "http://www.w3.org/TR/2001/REC-SVG-20010904/DTD/svg10.dtd">
<svg version="1.0" xmlns="http://www.w3.org/2000/svg"
 width="500.000000pt" height="500.000000pt" viewBox="0 0 500.000000 500.000000"
 preserveAspectRatio="xMidYMid meet">
<metadata>
Created by potrace 1.16, written by Peter Selinger 2001-2019
</metadata>
<g transform="translate(0.000000,500.000000) scale(0.100000,-0.100000)"
fill="#000000" stroke="none">
<path d="M0 2500 l0 -2500 2500 0 2500 0 0 2500 0 2500 -2500 0 -2500 0 0
-2500z m2644 1710 c785 -134 1380 -792 1437 -1589 49 -688 -312 -1332 -931
-1659 -220 -116 -504 -192 -721 -192 l-79 0 0 69 0 68 103 7 c570 38 1083 386
1327 899 209 439 211 922 4 1364 -236 507 -738 856 -1301 906 l-133 11 0 68 0
68 89 0 c49 0 141 -9 205 -20z m-142 -290 c605 -59 1122 -531 1249 -1140 130
-624 -189 -1273 -771 -1565 -194 -97 -345 -135 -576 -142 -251 -8 -427 24
-626 113 -494 222 -827 694 -855 1212 l-6 102 62 0 61 0 0 -57 c0 -154 50
-344 135 -518 161 -327 420 -554 765 -669 295 -98 626 -86 912 34 350 145 623
442 741 805 47 145 60 229 60 395 1 229 -40 404 -136 596 -201 400 -590 668
-1036 713 -57 6 -109 11 -117 11 -10 0 -14 15 -14 60 0 70 -12 66 152 50z
m-910 -503 c30 -15 63 -36 72 -46 17 -19 17 -21 -1 -45 -23 -32 -32 -32 -93 0
-142 74 -298 22 -361 -120 -30 -68 -30 -194 0 -262 72 -162 256 -202 413 -92
15 11 22 8 45 -15 l28 -28 -35 -31 c-53 -45 -116 -69 -200 -75 -234 -17 -392
149 -378 398 10 168 96 286 244 333 76 24 197 17 266 -17z m760 0 c30 -15 63
-36 72 -46 17 -19 17 -21 -1 -45 -23 -32 -32 -32 -93 0 -103 54 -231 40 -303
-34 -57 -58 -79 -120 -79 -217 0 -97 22 -159 79 -217 85 -88 236 -90 355 -6
15 11 22 8 45 -15 l28 -28 -35 -31 c-53 -45 -116 -69 -200 -75 -234 -17 -392
149 -378 398 10 168 96 286 244 333 76 24 197 17 266 -17z m-38 -1003 c18 -18
21 -40 6 -49 -7 -4 -5 -14 5 -28 33 -47 5 -87 -62 -87 l-43 0 0 90 0 90 39 0
c23 0 46 -7 55 -16z m308 -1 c25 -23 22 -58 -7 -81 -22 -17 -23 -21 -9 -33 8
-7 20 -21 25 -31 18 -34 -17 -20 -42 17 -30 44 -39 44 -39 0 0 -24 -5 -35 -15
-35 -12 0 -15 17 -15 90 l0 90 42 0 c24 0 49 -7 60 -17z m-263 -294 c61 -57
23 -159 -60 -159 -101 0 -132 126 -42 171 38 19 73 15 102 -12z m-496 -337
c36 -61 -9 -132 -83 -132 -104 0 -127 151 -27 178 43 12 87 -6 110 -46z m743
23 c18 -28 11 -60 -17 -76 -20 -10 -20 -11 6 -45 19 -25 22 -34 11 -34 -8 0
-27 16 -42 35 -14 19 -30 35 -35 35 -5 0 -9 -16 -9 -35 0 -19 -4 -35 -10 -35
-6 0 -10 37 -10 90 l0 90 45 0 c36 0 48 -5 61 -25z"/>
<path d="M2252 2104 c-31 -21 -31 -87 0 -108 34 -24 73 -20 97 10 12 15 21 34
21 44 0 10 -9 29 -21 44 -24 30 -63 34 -97 10z"/>
<path d="M1732 1787 c-28 -29 -28 -57 -1 -91 40 -50 119 -21 119 44 0 63 -75
93 -118 47z"/>
</g>
</svg>
