<?xml version="1.0" encoding="utf-8"?>
<!-- Generator: Adobe Illustrator 25.0.0, SVG Export Plug-In . SVG Version: 6.00 Build 0)  -->
<svg version="1.1" id="Capa_1" xmlns="http://www.w3.org/2000/svg" xmlns:xlink="http://www.w3.org/1999/xlink" x="0px" y="0px"
	 viewBox="0 0 225.3 109.15" style="enable-background:new 0 0 225.3 109.15;" xml:space="preserve">
<style type="text/css">
	.st0{fill-rule:evenodd;clip-rule:evenodd;fill:#2C2A86;}
	.st1{fill-rule:evenodd;clip-rule:evenodd;fill:#DB330D;}
</style>
<g>
	<path class="st0" d="M217.32,84.34c-39.25,27.19-116.49,25.81-162,19.2c-8.43-1.23-16.82-2.74-25.13-4.62
		c-8.39-1.89-17.2-3.75-25.05-7.37c-3.28-1.51-4.34-6.18-3.01-9.25c1.52-3.49,4.99-5.08,8.67-4.29c6.89,1.48,13.6,4.06,20.45,5.79
		c21.7,5.48,43.5,8.27,65.81,9.85c31.84,2.25,88.75,1.77,118.15-12.95C217.63,79.49,219.54,82.8,217.32,84.34z"/>
	<path class="st1" d="M76.56,17.01c-30.21,0-29.57,53.02,0.22,53.02C105.49,70.03,105.71,17.01,76.56,17.01L76.56,17.01z
		 M19.34,17.9H7.58c-1.16,0-2.1,0.94-2.1,2.11v47.02c0,1.16,0.95,2.1,2.11,2.1h11.76c1.16,0,2.1-0.94,2.1-2.1V20.01
		C21.44,18.85,20.49,17.9,19.34,17.9L19.34,17.9z M171.87,35.88v-0.01c-0.05-3.9-0.38-8.41-2.46-12.34
		c-1.08-2.03-2.64-3.68-4.48-4.78c-1.85-1.15-4.09-1.85-7.04-2.21c-2.73-0.29-5.75-0.22-9.25,0.22c-3.33,0.46-6.59,1.16-9.7,2.07
		c-3.14,0.92-5.02,4.32-4.18,7.58c0.33,1.28,0.65,2.56,0.97,3.85l0.05,0.18c0.13,0.52,0.47,0.97,0.93,1.23
		c0.46,0.26,1.01,0.31,1.5,0.15l0.17-0.06c0.63-0.21,1.28-0.41,1.92-0.61l0.08-0.03c0.48-0.15,0.95-0.3,1.36-0.43
		c2.76-0.68,5.75-1.35,8.81-1.57c1.91-0.13,3.89-0.26,5.64,0.23c0.62,0.16,1.15,0.68,1.36,1.34c0.46,1.38,0.52,2.93,0.53,4.58
		c-1.32,0.04-2.47,0.08-3.57,0.14l-0.13,0.01c-3.78,0.25-7.68,0.5-11.5,1.69c-2.85,0.92-5.13,2.3-6.78,4.08
		c-2.21,2.31-3.56,5.65-3.92,9.68c-0.22,2.97-0.16,5.41,0.21,7.7c0.57,3.42,1.95,6.23,4,8.12c1.72,1.63,4.03,2.73,6.71,3.18
		c1.09,0.17,2.21,0.26,3.33,0.26c1.75,0,3.53-0.21,5.32-0.63c2.62-0.62,5.24-1.85,7.78-3.66c1.06,2.08,3.18,3.44,5.52,3.44h4.92
		c1.05,0,1.9-0.88,1.9-1.95v-0.18C171.88,67.13,171.88,46.31,171.87,35.88L171.87,35.88z M127.9,64.95
		c0.06,0.61,0.18,1.87-0.63,2.84c-0.51,0.63-1.2,0.88-1.68,1.02l-0.02,0.01c-2.37,0.65-4.66,0.98-6.87,0.98
		c-1.57,0-3.09-0.17-4.56-0.5c-3.13-0.7-5.73-2.31-7.33-4.52c-1.27-1.72-1.97-4.02-1.97-6.44c-0.01-13.63-0.01-45.02,0-54.32
		c0-1.29,1.05-2.35,2.34-2.35h11.59c0.63,0,1.22,0.24,1.66,0.68c0.44,0.44,0.69,1.03,0.69,1.66v0.16c0,6.67,0,36.4,0.01,48.99v0.1
		c0.02,0.71,0.04,1.44,0.35,1.79c0.31,0.28,1.04,0.22,1.69,0.16l0.02,0c0.99-0.19,1.89-0.1,2.67,0.26c0.16,0.08,0.3,0.18,0.42,0.32
		c0.49,0.58,0.78,1.25,0.83,1.94c0.15,1.26,0.28,2.54,0.42,3.79c0.12,1.12,0.24,2.27,0.37,3.41C127.9,64.94,127.9,64.94,127.9,64.95
		L127.9,64.95z M51.67,64.95c0.06,0.61,0.18,1.87-0.63,2.84c-0.51,0.63-1.21,0.88-1.68,1.02l-0.02,0.01
		c-2.37,0.65-4.66,0.98-6.87,0.98c-1.57,0-3.1-0.17-4.56-0.5c-3.13-0.7-5.73-2.31-7.32-4.52c-1.27-1.72-1.97-4.02-1.97-6.44
		C28.6,45.21,28.6,15.97,28.6,4.02c0-1.29,1.06-2.35,2.35-2.35h11.59c0.63,0,1.21,0.24,1.66,0.68c0.45,0.44,0.69,1.03,0.69,1.66
		c0,6.33,0,36.46,0,49.15v0.1c0.02,0.71,0.04,1.44,0.35,1.79c0.31,0.28,1.04,0.22,1.69,0.16l0.02,0c0.99-0.19,1.89-0.1,2.67,0.26
		c0.16,0.08,0.31,0.18,0.42,0.32c0.49,0.58,0.78,1.25,0.83,1.94c0.15,1.26,0.28,2.55,0.42,3.79c0.12,1.12,0.24,2.27,0.37,3.41
		C51.66,64.94,51.66,64.94,51.67,64.95L51.67,64.95z M223.54,18.81c-0.48-0.88-1.5-0.9-2-0.91l-1.46,0c-2.92,0-5.84,0-8.77,0
		c-1.09,0-1.86,0.35-2.3,1.06c-0.35,0.61-0.61,1.27-0.85,1.9c-0.13,0.34-0.27,0.68-0.42,1.03c-1.36,3.41-2.76,7.36-4.11,11.18
		c-1.16,3.3-2.36,6.69-3.53,9.72c-1.46-3.36-2.94-7.11-4.38-10.75c-1.64-4.14-3.34-8.42-4.99-12.15c-0.23-0.51-0.62-1.24-1.3-1.62
		c-0.55-0.31-1.15-0.37-1.73-0.37l-4.82,0c-1.75,0-3.5,0-5.27,0c-0.55,0.02-1.3,0.06-1.78,0.69c-0.64,0.84-0.13,1.98,0.04,2.35
		c3.72,8.31,12.52,29.26,15.82,37.15l1.17,2.79c-0.99,2.44-2.83,6.36-4.06,7.61c-1.18,1.23-2.93,1.95-4.92,2.03
		c-2.07,0.02-3.65-0.12-5.11-0.41l-0.24-0.04c-0.65-0.12-1.46-0.28-2.17,0.29c-0.64,0.58-0.82,1.46-0.89,2.15
		c-0.17,1.42-0.35,2.83-0.53,4.24l-0.42,3.33c-0.06,0.57-0.13,1.22,0.17,1.81c0.31,0.67,0.96,0.96,1.46,1.14
		c2.89,0.79,5.85,1.21,8.78,1.24c0.29,0.01,0.59,0.02,0.88,0.02c3.42,0,6.43-0.76,8.96-2.27c2.53-1.47,4.75-3.77,6.6-6.82
		c1.82-2.92,4.37-8.62,5.55-11.54c2.73-6.76,5.5-14.12,8.19-21.23c2.69-7.14,5.47-14.53,8.25-21.4
		C223.62,20.42,223.95,19.59,223.54,18.81L223.54,18.81z M5.57,8.54c0-9.28,15.77-9.22,15.77-0.07C21.35,17.95,5.57,18.16,5.57,8.54
		L5.57,8.54z M158.09,53.48c-1.79,1.89-3.85,3.2-5.96,3.8c-2.07,0.48-3.53,0.51-4.74,0.11c-0.57-0.19-1.08-0.75-1.29-1.42
		c-0.38-1.23-0.44-2.73-0.19-4.46c0.19-1.31,0.84-2.44,1.76-3.04c1.09-0.74,2.59-0.99,4.02-1.22c2.09-0.3,4.27-0.4,6.4-0.48v2.26
		C158.1,50.51,158.11,52,158.09,53.48L158.09,53.48z M76.34,55.08c-8.38,0-8.38-23.12,0-23.12C84.24,31.96,84.81,55.08,76.34,55.08z
		"/>
</g>
</svg>
